{"title":"UFC.172.Jones.vs.Teixeira.Early.Prelims.720p.WEB.DL.x264-ViLLAiN","uid":10054925,"size":620590516,"categoryP":"video","categoryS":"hd___tv_shows","magnet":"?xt=urn:btih:081e6cff350db572e9276db773340397240e24e7&amp;dn=UFC.172.Jones.vs.Teixeira.Early.Prelims.720p.WEB.DL.x264-ViLLAiN&amp;tr=udp%3A%2F%2Ftracker.openbittorrent.com%3A80&amp;tr=udp%3A%2F%2Fopen.demonii.com%3A1337&amp;tr=udp%3A%2F%2Ftracker.coppersurfer.tk%3A6969&amp;tr=udp%3A%2F%2Fexodus.desync.com%3A6969","seeders":2,"leechers":0,"uploader":"Fergtr","files":1,"time":1398649047,"description":"UFC.172.Jones.vs.Teixeira.Early.Prelims.720p.WEB.DL.x264-ViLLAiNS\n\nOnly one fight: Chris Beal Vs Patrick Williams\n\nSpecs:\n\nShort:\n\nResolution: 1280 x 720\nFrame rate: 29.97fps\nBit rate:   4425 Kbps\nAudio:   AAC, 2 channels, 128kbps\n\n\n\nLong:\n \nFormat                         : MPEG-4\nFormat profile                 : Base Media\nCodec ID                       : isom\nFile size                      : 592 MiB\nDuration                       : 18mn 41s\nOverall bit rate               : 4 425 Kbps\nWriting application            : Lavf55.34.100\n\nVideo\nID                             : 1\nFormat                         : AVC\nFormat/Info                    : Advanced Video Codec\nFormat profile                 : &lt;a class=&quot;__cf_email__&quot; href=&quot;/cdn-cgi/l/email-protection&quot; data-cfemail=&quot;b6fbd7dfd8f6fa829886&quot;&gt;[email&amp;#160;protected]&lt;/a&gt;&lt;script cf-hash='f9e31' type=&quot;text/javascript&quot;&gt;\n/* &lt;![CDATA[ */!function(){try{var t=&quot;currentScript&quot;in document?document.currentScript:function(){for(var t=document.getElementsByTagName(&quot;script&quot;),e=t.length;e--;)if(t[e].getAttribute(&quot;cf-hash&quot;))return t[e]}();if(t&amp;&amp;t.previousSibling){var e,r,n,i,c=t.previousSibling,a=c.getAttribute(&quot;data-cfemail&quot;);if(a){for(e=&quot;&quot;,r=parseInt(a.substr(0,2),16),n=2;a.length-n;n+=2)i=parseInt(a.substr(n,2),16)^r,e+=String.fromCharCode(i);e=document.createTextNode(e),c.parentNode.replaceChild(e,c)}}}catch(u){}}();/* ]]&gt; */&lt;/script&gt;\nFormat settings, CABAC         : Yes\nFormat settings, ReFrames      : 3 frames\nCodec ID                       : avc1\nCodec ID/Info                  : Advanced Video Coding\nDuration                       : 18mn 41s\nBit rate                       : 4 287 Kbps\nWidth                          : 1 280 pixels\nHeight                         : 720 pixels\nDisplay aspect ratio           : 16:9\nFrame rate mode                : Constant\nFrame rate                     : 29.970 fps\nColor space                    : YUV\nChroma subsampling             : 4:2:0\nBit depth                      : 8 bits\nScan type                      : Progressive\nBits/(Pixel*Frame)             : 0.155\nStream size                    : 573 MiB (97%)\n\nAudio\nID                             : 2\nFormat                         : AAC\nFormat/Info                    : Advanced Audio Codec\nFormat profile                 : LC\nCodec ID                       : 40\nDuration                       : 18mn 41s\nBit rate mode                  : Constant\nBit rate                       : 128 Kbps\nChannel(s)                     : 2 channels\nChannel positions              : Front: L R\nSampling rate                  : 44.1 KHz\nCompression mode               : Lossy\nStream size                    : 17.2 MiB (3%)","torrent":{"xt":"urn:btih:081e6cff350db572e9276db773340397240e24e7","amp;dn":"UFC.172.Jones.vs.Teixeira.Early.Prelims.720p.WEB.DL.x264-ViLLAiN","amp;tr":["udp%3A%2F%2Ftracker.openbittorrent.com%3A80","udp%3A%2F%2Fopen.demonii.com%3A1337","udp%3A%2F%2Ftracker.coppersurfer.tk%3A6969","udp%3A%2F%2Fexodus.desync.com%3A6969"],"infoHash":"081e6cff350db572e9276db773340397240e24e7","infoHashBuffer":{"type":"Buffer","data":[8,30,108,255,53,13,181,114,233,39,109,183,115,52,3,151,36,14,36,231]},"announce":[],"urlList":[]}}